<svg width="16" height="17" viewBox="0 0 16 17" fill="none" xmlns="http://www.w3.org/2000/svg">
<path fill-rule="evenodd" clip-rule="evenodd" d="M2.35814 7.58962C1.85553 7.58962 1.44808 7.99707 1.44808 8.49968C1.44808 9.00229 1.85553 9.40973 2.35814 9.40973L7.09037 9.40973L7.09037 14.1421C7.09037 14.6447 7.49782 15.0522 8.00043 15.0522C8.50304 15.0522 8.91049 14.6447 8.91049 14.1421L8.91049 9.40973L13.6428 9.40973C14.1454 9.40973 14.5529 9.00228 14.5529 8.49967C14.5529 7.99706 14.1454 7.58962 13.6428 7.58962L8.91049 7.58962L8.91049 2.85743C8.91049 2.35482 8.50304 1.94737 8.00043 1.94737C7.49782 1.94737 7.09037 2.35482 7.09037 2.85743L7.09037 7.58962L2.35814 7.58962Z" fill="#333333"/>
</svg>
