<svg width="96" height="48" viewBox="0 0 96 48" fill="none" xmlns="http://www.w3.org/2000/svg">
<g clip-path="url(#clip0_2179_12387)">
<rect width="48" height="48" fill="#F4EFFF"/>
<path d="M17 23C16.45 23 15.9792 22.8042 15.5875 22.4125C15.1958 22.0208 15 21.55 15 21V17C15 16.45 15.1958 15.9792 15.5875 15.5875C15.9792 15.1958 16.45 15 17 15H21C21.55 15 22.0208 15.1958 22.4125 15.5875C22.8042 15.9792 23 16.45 23 17V21C23 21.55 22.8042 22.0208 22.4125 22.4125C22.0208 22.8042 21.55 23 21 23H17ZM17 33C16.45 33 15.9792 32.8042 15.5875 32.4125C15.1958 32.0208 15 31.55 15 31V27C15 26.45 15.1958 25.9792 15.5875 25.5875C15.9792 25.1958 16.45 25 17 25H21C21.55 25 22.0208 25.1958 22.4125 25.5875C22.8042 25.9792 23 26.45 23 27V31C23 31.55 22.8042 32.0208 22.4125 32.4125C22.0208 32.8042 21.55 33 21 33H17ZM27 23C26.45 23 25.9792 22.8042 25.5875 22.4125C25.1958 22.0208 25 21.55 25 21V17C25 16.45 25.1958 15.9792 25.5875 15.5875C25.9792 15.1958 26.45 15 27 15H31C31.55 15 32.0208 15.1958 32.4125 15.5875C32.8042 15.9792 33 16.45 33 17V21C33 21.55 32.8042 22.0208 32.4125 22.4125C32.0208 22.8042 31.55 23 31 23H27ZM27 33C26.45 33 25.9792 32.8042 25.5875 32.4125C25.1958 32.0208 25 31.55 25 31V27C25 26.45 25.1958 25.9792 25.5875 25.5875C25.9792 25.1958 26.45 25 27 25H31C31.55 25 32.0208 25.1958 32.4125 25.5875C32.8042 25.9792 33 26.45 33 27V31C33 31.55 32.8042 32.0208 32.4125 32.4125C32.0208 32.8042 31.55 33 31 33H27Z" fill="#915AFB"/>
<rect width="48" height="48" transform="translate(48)" fill="white"/>
<path d="M65 34C64.45 34 63.9792 33.8042 63.5875 33.4125C63.1958 33.0208 63 32.55 63 32V18C63 17.45 63.1958 16.9792 63.5875 16.5875C63.9792 16.1958 64.45 16 65 16C65.5523 16 66 15.5523 66 15C66 14.7167 66.0958 14.4792 66.2875 14.2875C66.4792 14.0958 66.7167 14 67 14C67.2833 14 67.5208 14.0958 67.7125 14.2875C67.9042 14.4792 68 14.7167 68 15C68 15.5523 68.4477 16 69 16H75C75.5523 16 76 15.5523 76 15C76 14.7167 76.0958 14.4792 76.2875 14.2875C76.4792 14.0958 76.7167 14 77 14C77.2833 14 77.5208 14.0958 77.7125 14.2875C77.9042 14.4792 78 14.7167 78 15C78 15.5523 78.4477 16 79 16C79.55 16 80.0208 16.1958 80.4125 16.5875C80.8042 16.9792 81 17.45 81 18V32C81 32.55 80.8042 33.0208 80.4125 33.4125C80.0208 33.8042 79.55 34 79 34H65ZM65 31C65 31.5523 65.4477 32 66 32H78C78.5523 32 79 31.5523 79 31V23C79 22.4477 78.5523 22 78 22H66C65.4477 22 65 22.4477 65 23V31Z" fill="#C1C1C1"/>
</g>
<path d="M1 8C1 4.13401 4.13401 1 8 1H88C91.866 1 95 4.13401 95 8V40C95 43.866 91.866 47 88 47H8C4.13401 47 1 43.866 1 40V8Z" stroke="#EFEFEF" stroke-width="2"/>
<defs>
<clipPath id="clip0_2179_12387">
<path d="M0 8C0 3.58172 3.58172 0 8 0H88C92.4183 0 96 3.58172 96 8V40C96 44.4183 92.4183 48 88 48H8C3.58172 48 0 44.4183 0 40V8Z" fill="white"/>
</clipPath>
</defs>
</svg>
