<svg xmlns="http://www.w3.org/2000/svg" width="100%" height="100%" viewBox="0 0 24 24" fill="none">
  <path d="M4.0001 23.0501C3.11676 23.0501 2.37093 22.7459 1.7626 22.1376C1.15426 21.5293 0.850098 20.7834 0.850098 19.9001V9.9001C0.850098 9.01676 1.15426 8.27093 1.7626 7.6626C2.37093 7.05426 3.11676 6.7501 4.0001 6.7501H5.9251C6.47738 6.7501 6.9251 6.30238 6.9251 5.7501V4.7501C6.9251 3.86676 7.22926 3.12093 7.8376 2.5126C8.44593 1.90426 9.19176 1.6001 10.0751 1.6001H13.3251C14.2084 1.6001 14.9543 1.90426 15.5626 2.5126C16.1709 3.12093 16.4751 3.86676 16.4751 4.7501V5.7501C16.4751 6.30238 16.9228 6.7501 17.4751 6.7501H19.4001C20.2834 6.7501 21.0293 7.05426 21.6376 7.6626C22.2459 8.27093 22.5501 9.01676 22.5501 9.9001V19.9001C22.5501 20.7834 22.2459 21.5293 21.6376 22.1376C21.0293 22.7459 20.2834 23.0501 19.4001 23.0501H4.0001ZM10.0751 5.7501C10.0751 6.30238 10.5228 6.7501 11.0751 6.7501H12.3251C12.8774 6.7501 13.3251 6.30238 13.3251 5.7501C13.3251 5.19781 12.8774 4.7501 12.3251 4.7501H11.0751C10.5228 4.7501 10.0751 5.19781 10.0751 5.7501Z" fill="#A5A5A5"/>
</svg>