<svg width="28" height="28" viewBox="0 0 28 28" fill="none" xmlns="http://www.w3.org/2000/svg">
<g id="change">
<path id="Vector 120 (Stroke)" fill-rule="evenodd" clip-rule="evenodd" d="M13.9571 23.3948C13.9571 23.8249 13.45 24.0543 13.127 23.7703L5.66266 17.2089C5.31633 16.9044 5.53165 16.3333 5.99277 16.3333L22.8333 16.3333C23.1095 16.3333 23.3333 16.5572 23.3333 16.8333L23.3333 18.8727C23.3333 19.1489 23.1095 19.3727 22.8333 19.3727L13.9571 19.3727L13.9571 23.3948Z" fill="white"/>
<path id="Vector 120 (Stroke)_2" fill-rule="evenodd" clip-rule="evenodd" d="M14.0429 4.60524C14.0429 4.17512 14.55 3.94573 14.873 4.2297L22.3373 10.7911C22.6837 11.0956 22.4684 11.6667 22.0072 11.6667L5.16669 11.6667C4.89054 11.6667 4.66669 11.4428 4.66669 11.1667L4.66669 9.12728C4.66669 8.85114 4.89054 8.62728 5.16669 8.62728H14.0429L14.0429 4.60524Z" fill="white"/>
</g>
</svg>
