<svg width="16" height="16" viewBox="0 0 16 16" fill="none" xmlns="http://www.w3.org/2000/svg">
<path fill-rule="evenodd" clip-rule="evenodd" d="M3.36738 11.3466C3.01198 11.702 3.01198 12.2782 3.36738 12.6336C3.72278 12.989 4.299 12.989 4.6544 12.6336L8.00059 9.28744L11.3469 12.6337C11.7023 12.9891 12.2785 12.9891 12.6339 12.6337C12.9893 12.2783 12.9893 11.7021 12.6339 11.3467L9.2876 8.00043L12.6339 4.65415C12.9893 4.29875 12.9893 3.72253 12.6339 3.36713C12.2785 3.01174 11.7023 3.01174 11.3469 3.36714L8.00059 6.71341L4.65442 3.36725C4.29902 3.01185 3.72281 3.01185 3.36741 3.36725C3.01201 3.72265 3.01201 4.29886 3.36741 4.65426L6.71358 8.00043L3.36738 11.3466Z" fill="white"/>
</svg>
