<svg xmlns="http://www.w3.org/2000/svg" width="100%" height="100%" viewBox="0 0 24 24" fill="none">
  <path fill-rule="evenodd" clip-rule="evenodd" d="M4.79289 17.2784C4.40237 17.669 4.40237 18.3021 4.79289 18.6926L5.3092 19.209C5.69973 19.5995 6.33289 19.5995 6.72341 19.209L12.0009 13.9315L17.2785 19.2091C17.669 19.5996 18.3022 19.5996 18.6927 19.2091L19.209 18.6928C19.5995 18.3023 19.5995 17.6691 19.209 17.2786L13.9314 12.001L19.209 6.72341C19.5995 6.33289 19.5995 5.69973 19.209 5.3092L18.6926 4.79289C18.3021 4.40237 17.669 4.40237 17.2784 4.79289L12.0009 10.0705L6.72346 4.79306C6.33294 4.40254 5.69977 4.40254 5.30925 4.79306L4.79294 5.30937C4.40241 5.69989 4.40241 6.33306 4.79294 6.72358L10.0703 12.001L4.79289 17.2784Z" fill="#333333"/>
</svg>