<svg width="24" height="24" viewBox="0 0 24 24" fill="none" xmlns="http://www.w3.org/2000/svg">
<g id="download">
<path id="Union" fill-rule="evenodd" clip-rule="evenodd" d="M10.75 10.9822L8.59108 8.82332C8.20056 8.43279 7.5674 8.43279 7.17687 8.82332L6.82332 9.17687C6.43279 9.5674 6.43279 10.2006 6.82332 10.5911L11.293 15.0608C11.6835 15.4513 12.3167 15.4513 12.7072 15.0608L17.1769 10.5911C17.5674 10.2006 17.5674 9.5674 17.1769 9.17687L16.8233 8.82332C16.4328 8.43279 15.7996 8.43279 15.4091 8.82332L13.25 10.9824V4C13.25 3.44772 12.8023 3 12.25 3H11.75C11.1977 3 10.75 3.44772 10.75 4L10.75 10.9822ZM4 16C4 15.4477 4.44772 15 5 15H5.5C6.05228 15 6.5 15.4477 6.5 16V17.75H17.5V16C17.5 15.4477 17.9477 15 18.5 15H19C19.5523 15 20 15.4477 20 16V19.25C20 19.8023 19.5523 20.25 19 20.25H5C4.44772 20.25 4 19.8023 4 19.25V16Z" fill="#6740B2"/>
</g>
</svg>
