<svg width="100%" height="100%" viewBox="0 0 128 127" fill="none" xmlns="http://www.w3.org/2000/svg">
<g id="error">
<path id="Subtract" fill-rule="evenodd" clip-rule="evenodd" d="M63.9998 105.833C87.3799 105.833 106.333 86.8794 106.333 63.4994C106.333 40.1193 87.3799 21.166 63.9998 21.166C40.6198 21.166 21.6665 40.1193 21.6665 63.4994C21.6665 86.8794 40.6198 105.833 63.9998 105.833ZM69.2915 66.8908L69.2915 44.7139C69.2915 42.6682 67.6331 41.0098 65.5873 41.0098H62.4123C60.3666 41.0098 58.7082 42.6682 58.7082 44.7139V66.8908C58.7082 68.9366 60.3666 70.595 62.4123 70.595H65.5873C67.6331 70.595 69.2915 68.9366 69.2915 66.8908ZM58.7082 80.3055V82.2848C58.7082 84.3305 60.3666 85.9889 62.4123 85.9889H65.5873C67.6331 85.9889 69.2915 84.3305 69.2915 82.2848V80.3055C69.2915 78.2597 67.6331 76.6013 65.5873 76.6013H62.4123C60.3666 76.6013 58.7082 78.2597 58.7082 80.3055Z" fill="#C1C1C1"/>
</g>
</svg>
