<svg xmlns="http://www.w3.org/2000/svg" width="100%" height="100%" viewBox="0 0 24 24" fill="none">
  <path d="M8.90141 22.9875C7.99226 22.9875 7.22513 22.6746 6.59921 22.0487C5.9733 21.4228 5.66039 20.6556 5.66039 19.7465V19.3521C5.66039 18.7929 5.20708 18.3396 4.64789 18.3396H4.25352C3.34438 18.3396 2.57724 18.0267 1.95133 17.4008C1.32542 16.7749 1.0125 16.0077 1.0125 15.0986V8.90141C1.0125 7.99226 1.32542 7.22513 1.95133 6.59921C2.57724 5.9733 3.34438 5.66039 4.25352 5.66039H4.64789C5.20708 5.66039 5.66039 5.20708 5.66039 4.64789V4.25352C5.66039 3.34437 5.9733 2.57724 6.59921 1.95133C7.22513 1.32542 7.99226 1.0125 8.90141 1.0125H15.0986C16.0077 1.0125 16.7749 1.32542 17.4008 1.95133C18.0267 2.57724 18.3396 3.34437 18.3396 4.25352V4.64789C18.3396 5.20708 18.7929 5.66039 19.3521 5.66039H19.7465C20.6556 5.66039 21.4228 5.9733 22.0487 6.59921C22.6746 7.22513 22.9875 7.99226 22.9875 8.90141V15.0986C22.9875 16.0077 22.6746 16.7749 22.0487 17.4008C21.4228 18.0267 20.6556 18.3396 19.7465 18.3396H19.3521C18.7929 18.3396 18.3396 18.7929 18.3396 19.3521V19.7465C18.3396 20.6556 18.0267 21.4228 17.4008 22.0487C16.7749 22.6746 16.0077 22.9875 15.0986 22.9875H8.90141Z" fill="#A5A5A5" stroke="#A5A5A5" stroke-width="0.025"/>
</svg>