<svg width="24" height="24" viewBox="0 0 24 24" fill="none" xmlns="http://www.w3.org/2000/svg">
<g id="Group 38216">
<path id="info" d="M7.32 23.055C8.78 23.685 10.34 24 12 24C13.66 24 15.22 23.685 16.68 23.055C18.14 22.425 19.41 21.57 20.49 20.49C21.57 19.41 22.425 18.14 23.055 16.68C23.685 15.22 24 13.66 24 12C24 10.34 23.685 8.78 23.055 7.32C22.425 5.86 21.57 4.59 20.49 3.51C19.41 2.43 18.14 1.575 16.68 0.945C15.22 0.315 13.66 0 12 0C10.34 0 8.78 0.315 7.32 0.945C5.86 1.575 4.59 2.43 3.51 3.51C2.43 4.59 1.575 5.86 0.945 7.32C0.315 8.78 0 10.34 0 12C0 13.66 0.315 15.22 0.945 16.68C1.575 18.14 2.43 19.41 3.51 20.49C4.59 21.57 5.86 22.425 7.32 23.055Z" fill="#CCB3FD"/>
<g id="info_2">
<path d="M12.8538 17.655C12.6238 17.885 12.3388 18 11.9988 18C11.6588 18 11.3738 17.885 11.1438 17.655C10.9138 17.425 10.7988 17.14 10.7988 16.8V12C10.7988 11.66 10.9138 11.375 11.1438 11.145C11.3738 10.915 11.6588 10.8 11.9988 10.8C12.3388 10.8 12.6238 10.915 12.8538 11.145C13.0838 11.375 13.1988 11.66 13.1988 12V16.8C13.1988 17.14 13.0838 17.425 12.8538 17.655Z" fill="white"/>
<path d="M12.8538 8.055C12.6238 8.285 12.3388 8.4 11.9988 8.4C11.6588 8.4 11.3738 8.285 11.1438 8.055C10.9138 7.825 10.7988 7.54 10.7988 7.2C10.7988 6.86 10.9138 6.575 11.1438 6.345C11.3738 6.115 11.6588 6 11.9988 6C12.3388 6 12.6238 6.115 12.8538 6.345C13.0838 6.575 13.1988 6.86 13.1988 7.2C13.1988 7.54 13.0838 7.825 12.8538 8.055Z" fill="white"/>
</g>
</g>
</svg>
