<svg width="100%" height="100%" viewBox="0 0 40 40" fill="none" xmlns="http://www.w3.org/2000/svg">
<path d="M9.45163 30.615L5.04106 28.0693C4.50299 27.7629 4.19692 27.2962 4.12219 26.668C4.04741 26.0395 4.21925 25.5115 4.63764 25.0826L5.49501 24.2038C5.7042 23.9894 5.95068 23.8363 6.23462 23.7444C6.5184 23.6525 6.80963 23.6372 7.10849 23.6985L10.2258 24.2177C10.5393 24.2699 10.8582 24.1645 11.0827 23.9343L15.7225 19.1785C16.1877 18.7017 16.0768 17.9007 15.5004 17.5755L4.99601 11.6496C4.30746 11.2507 3.90347 10.6449 3.7837 9.83158C3.66394 9.01838 3.88828 8.32085 4.45713 7.73778L5.13401 7.04398C5.46357 6.70618 5.83022 6.48388 6.23401 6.37657C6.63793 6.26924 7.04936 6.27686 7.46853 6.39962L23.3035 10.6921C23.6452 10.7847 24.0092 10.6831 24.258 10.4256L28.4184 6.11892C29.138 5.38129 30.015 5.01251 31.0496 5.01251C32.0844 5.01251 32.9611 5.38126 33.6809 6.11892C34.4005 6.85658 34.7603 7.75532 34.7603 8.81588C34.7603 9.87645 34.4005 10.7752 33.6809 11.5128L29.5155 15.8246C29.2693 16.0794 29.173 16.4486 29.2623 16.7953L33.4069 32.8938C33.5267 33.3542 33.5267 33.8222 33.4069 34.2982C33.2871 34.7739 33.0627 35.1804 32.7334 35.5179L32.3728 35.8414C31.7438 36.4862 30.9874 36.7475 30.1037 36.6247C29.2201 36.5019 28.5691 36.0417 28.1498 35.2435L22.5486 24.801C22.2315 24.2099 21.4498 24.0959 20.9845 24.5729L16.3488 29.3245C16.1221 29.5568 16.0195 29.8873 16.0735 30.2111L16.5751 33.2164C16.6349 33.5844 16.605 33.9446 16.4853 34.2972C16.3655 34.6501 16.186 34.9491 15.9467 35.1944L15.5407 35.6107C15.032 36.132 14.4191 36.3389 13.7008 36.2315C12.9826 36.1242 12.4444 35.7487 12.0852 35.1045L9.82739 31C9.7388 30.8389 9.60884 30.7058 9.45163 30.615Z" fill="#A5A5A5" stroke="#A5A5A5" stroke-width="0.025"/>
</svg>
