<svg xmlns="http://www.w3.org/2000/svg" width="100%" height="100%4" viewBox="0 0 24 24" fill="none">
  <path d="M2.80243 16.8372L2.80249 16.8373L5.41764 18.3099C5.57878 18.4006 5.71199 18.5337 5.80281 18.6948L7.13649 21.0602L2.80243 16.8372ZM2.80243 16.8372C2.47291 16.6542 2.28562 16.3755 2.23985 16.0002C2.19404 15.6246 2.29926 15.3093 2.55543 15.0531L3.08271 14.5258C3.21079 14.3978 3.36168 14.3063 3.53554 14.2514C3.70925 14.1965 3.88749 14.1874 4.07049 14.224L4.07093 14.2241M2.80243 16.8372L4.07093 14.2241M4.07093 14.2241L5.78565 14.5027C6.10698 14.5549 6.43381 14.4495 6.664 14.2193L8.99611 11.8872C9.47295 11.4103 9.35915 10.6093 8.76837 10.2842L2.77476 6.98538C2.77474 6.98537 2.77472 6.98536 2.77471 6.98535C2.35261 6.74676 2.1051 6.38473 2.03167 5.8982C1.95826 5.41185 2.0957 4.99492 2.44442 4.6462L2.8607 4.22992C3.06282 4.02779 3.28755 3.89491 3.53492 3.83078C3.78243 3.76661 4.03455 3.77115 4.29152 3.84457L4.29152 3.84458M4.07093 14.2241L4.29152 3.84458M4.29152 3.84458L4.29176 3.84464M4.29152 3.84458L4.29176 3.84464M4.29176 3.84464L13.8064 6.36091C14.1567 6.45355 14.5298 6.35195 14.7848 6.09448L17.1806 3.67488L17.1807 3.67484C17.6223 3.23323 18.1603 3.0125 18.7953 3.0125C19.4303 3.0125 19.9683 3.23324 20.4099 3.67488C20.8516 4.11652 21.0723 4.65449 21.0723 5.28952C21.0723 5.92456 20.8516 6.46252 20.4099 6.90417L20.4099 6.90421M4.29176 3.84464L20.4099 6.90421M20.4099 6.90421L18.0091 9.32876C17.7568 9.58356 17.6581 9.9528 17.7496 10.2995L20.2402 19.7375L20.2402 19.7376M20.4099 6.90421L20.2402 19.7376M20.2402 19.7376C20.3136 20.0129 20.3136 20.2929 20.2401 20.5776C20.1667 20.8622 20.0292 21.1052 19.8274 21.3071C19.8273 21.3072 19.8272 21.3073 19.8271 21.3074L19.6057 21.5011L19.6057 21.501M20.2402 19.7376L19.6057 21.501M19.6057 21.501L19.6051 21.5016M19.6057 21.501L19.6051 21.5016M19.6051 21.5016C19.2194 21.8874 18.7561 22.0433 18.2142 21.9699C17.6723 21.8964 17.2734 21.6212 17.0163 21.1438L17.0162 21.1437M19.6051 21.5016L17.0162 21.1437M17.0162 21.1437L13.8281 15.345M17.0162 21.1437L13.8281 15.345M13.8281 15.345C13.5032 14.7539 12.7019 14.6399 12.225 15.1169M13.8281 15.345L12.225 15.1169M12.225 15.1169L9.89701 17.4448M12.225 15.1169L9.89701 17.4448M9.89701 17.4448C9.66471 17.6771 9.55956 18.0077 9.61495 18.3315M9.89701 17.4448L9.61495 18.3315M9.61495 18.3315L9.88849 19.9307M9.61495 18.3315L9.88849 19.9307M9.88849 19.9307C9.92515 20.1506 9.90683 20.3659 9.83351 20.5767C9.76008 20.7878 9.65003 20.9665 9.50346 21.1131L9.25369 21.3629C8.94199 21.6746 8.56667 21.7982 8.12651 21.734C7.68629 21.6698 7.35663 21.4454 7.13653 21.0603L9.88849 19.9307Z" fill="#A5A5A5" stroke="#A5A5A5" stroke-width="0.025"/>
</svg>