<svg width="30" height="31" viewBox="0 0 30 31" fill="none" xmlns="http://www.w3.org/2000/svg">
<g id="lock">
<mask id="mask0_2373_11161" style="mask-type:alpha" maskUnits="userSpaceOnUse" x="0" y="0" width="30" height="31">
<rect id="Bounding box" y="0.5" width="30" height="30" fill="#D9D9D9"/>
</mask>
<g mask="url(#mask0_2373_11161)">
<path id="lock_2" d="M7.5 28C6.8125 28 6.22396 27.7552 5.73438 27.2656C5.24479 26.776 5 26.1875 5 25.5V13C5 12.3125 5.24479 11.724 5.73438 11.2344C6.22396 10.7448 6.8125 10.5 7.5 10.5H8.75V8C8.75 6.27083 9.35938 4.79688 10.5781 3.57812C11.7969 2.35937 13.2708 1.75 15 1.75C16.7292 1.75 18.2031 2.35937 19.4219 3.57812C20.6406 4.79688 21.25 6.27083 21.25 8V10.5H22.5C23.1875 10.5 23.776 10.7448 24.2656 11.2344C24.7552 11.724 25 12.3125 25 13V25.5C25 26.1875 24.7552 26.776 24.2656 27.2656C23.776 27.7552 23.1875 28 22.5 28H7.5ZM11.25 10.5H18.75V8C18.75 6.95833 18.3854 6.07292 17.6562 5.34375C16.9271 4.61458 16.0417 4.25 15 4.25C13.9583 4.25 13.0729 4.61458 12.3438 5.34375C11.6146 6.07292 11.25 6.95833 11.25 8V10.5Z" fill="white"/>
</g>
</g>
</svg>
