<svg xmlns="http://www.w3.org/2000/svg" width="100%" height="100%" viewBox="0 0 24 24" fill="none">
  <path d="M9.79874 20.6321L9.79859 20.632L8.0052 18.9901L8.00514 18.9901C6.25419 17.4075 4.65058 15.7828 3.19432 14.1161C1.73961 12.4512 1.0125 10.5597 1.0125 8.44106C1.0125 6.60947 1.61758 5.08048 2.82755 3.85319C4.03748 2.62613 5.55816 2.0125 7.39054 2.0125C8.24784 2.0125 9.063 2.16378 9.83612 2.4663C10.3204 2.65582 10.7751 2.90141 11.2001 3.20307C11.6372 3.51334 12.2372 3.51334 12.6743 3.20307C13.0993 2.90141 13.5539 2.65582 14.0382 2.4663C14.8113 2.16378 15.6265 2.0125 16.4838 2.0125C18.3226 2.0125 19.8576 2.62614 21.0896 3.85327C22.3216 5.08057 22.9376 6.60954 22.9376 8.44106C22.9376 10.5596 22.2021 12.4554 20.7306 14.1287C19.2575 15.8038 17.6286 17.4411 15.844 19.0406L15.8438 19.0407L14.101 20.6573L14.1009 20.6574C13.799 20.9425 13.4595 21.152 13.0823 21.2861C12.7047 21.4204 12.323 21.4875 11.9372 21.4875C11.5514 21.4875 11.1741 21.4162 10.805 21.2736C10.4361 21.1311 10.1007 20.9173 9.79874 20.6321Z" fill="#A5A5A5" stroke="#A5A5A5" stroke-width="0.025"/>
</svg>