<svg xmlns="http://www.w3.org/2000/svg" width="24" height="24" viewBox="0 0 24 24" fill="none">
  <path d="M12 11.5C10.9 11.5 9.95833 11.1083 9.175 10.325C8.39167 9.54167 8 8.6 8 7.5C8 6.4 8.39167 5.45833 9.175 4.675C9.95833 3.89167 10.9 3.5 12 3.5C13.1 3.5 14.0417 3.89167 14.825 4.675C15.6083 5.45833 16 6.4 16 7.5C16 8.6 15.6083 9.54167 14.825 10.325C14.0417 11.1083 13.1 11.5 12 11.5ZM5 20.5C4.44772 20.5 4 20.0523 4 19.5V17.7C4 17.1333 4.146 16.6127 4.438 16.138C4.73 15.6633 5.11733 15.3007 5.6 15.05C6.63333 14.5333 7.68333 14.146 8.75 13.888C9.81667 13.63 10.9 13.5007 12 13.5C13.1 13.4993 14.1833 13.6287 15.25 13.888C16.3167 14.1473 17.3667 14.5347 18.4 15.05C18.8833 15.3 19.271 15.6627 19.563 16.138C19.855 16.6133 20.0007 17.134 20 17.7V19.5C20 20.0523 19.5523 20.5 19 20.5H5Z" fill="#333333"/>
</svg>