<svg width="100%" height="100%" viewBox="0 0 147 36" fill="none" xmlns="http://www.w3.org/2000/svg">
<g clip-path="url(#clip0_461_235)">
<g clip-path="url(#clip1_461_235)">
<path d="M23.6623 21.0221C23.4792 20.0577 22.6767 19.2634 21.2766 18.659C19.4852 17.8861 17.4791 17.7028 16.1273 17.6318C14.9719 17.5707 13.7532 17.5889 12.5079 17.6847C11.8653 17.7342 11.3276 17.7639 10.7848 17.7441C7.7415 17.6368 5.59386 16.6162 5.31417 15.1432C5.02615 13.6272 6.7992 11.994 9.9474 10.8678C10.8098 11.9858 11.1944 13.7098 11.559 16.281C11.5789 16.4263 11.7021 16.532 11.8503 16.532C11.9985 16.532 12.12 16.4263 12.1417 16.281C12.9941 10.265 13.8681 9.39805 19.9331 8.55255C20.0796 8.53273 20.1861 8.41053 20.1861 8.26356C20.1861 8.11659 20.0796 7.99603 19.9331 7.97457C13.8681 7.12906 12.9941 6.26209 12.1417 0.246126C12.1217 0.100805 11.9985 -0.00488281 11.8503 -0.00488281C11.7021 -0.00488281 11.5806 0.100805 11.559 0.246126C10.7066 6.26209 9.83253 7.12906 3.76753 7.97457C3.62103 7.99438 3.51448 8.11659 3.51448 8.26356C3.51448 8.41053 3.62103 8.53108 3.76753 8.55255C4.77143 8.69292 5.54724 8.82337 6.19819 8.96209C2.02112 10.7076 -0.329628 12.9551 0.0366363 14.8889C0.218103 15.8483 1.01556 16.641 2.4057 17.2437C4.18374 18.0149 6.17655 18.2015 7.52007 18.2742C8.46071 18.3254 9.44629 18.3254 10.4469 18.2725C10.6883 18.2593 10.928 18.2445 11.1677 18.2263C11.7021 18.185 12.3231 18.1437 12.9275 18.1652C15.9625 18.2759 18.1034 19.2964 18.3831 20.7661C18.6728 22.292 16.8798 23.9335 13.6966 25.0614C12.8692 23.9417 12.4963 22.2425 12.1383 19.7175C12.1183 19.5722 11.9952 19.4665 11.847 19.4665C11.6988 19.4665 11.5773 19.5722 11.5556 19.7175C10.7032 25.7335 9.8292 26.6004 3.7642 27.4459C3.6177 27.4658 3.51115 27.588 3.51115 27.7349C3.51115 27.8819 3.6177 28.0025 3.7642 28.0239C9.8292 28.8694 10.7032 29.7364 11.5556 35.7524C11.5756 35.8977 11.6988 36.0034 11.847 36.0034C11.9952 36.0034 12.1167 35.8977 12.1383 35.7524C12.9907 29.7364 13.8648 28.8694 19.9298 28.0239C20.0763 28.0041 20.1828 27.8819 20.1828 27.7349C20.1828 27.588 20.0763 27.4674 19.9298 27.4459C18.8576 27.2957 18.0368 27.157 17.3559 27.005C21.6262 25.2546 24.0319 22.9839 23.659 21.0237L23.6623 21.0221Z" fill="#915AFB"/>
<path d="M32.1214 22.2723L32.108 22.0692H35.8223L35.8356 22.1964C35.9754 23.5637 37.4688 24.4868 39.6264 24.4868C41.7841 24.4868 43.0976 23.5125 43.0976 22.1072V22.094C43.0976 20.8918 42.1919 20.2213 39.9078 19.7523L37.9683 19.3593C34.1391 18.5865 32.4943 16.8145 32.4943 14.0435V14.0303C32.4943 10.6384 35.4294 8.39746 39.5132 8.39746C43.8135 8.39746 46.3407 10.6499 46.5821 13.7017L46.5954 13.8668H42.9711L42.9461 13.7149C42.7297 12.4103 41.4528 11.5004 39.5132 11.5004C37.612 11.5136 36.3484 12.374 36.3484 13.7413V13.7545C36.3484 14.9452 37.2424 15.6536 39.4117 16.0962L41.3645 16.4892C45.2569 17.2868 46.9534 18.8309 46.9534 21.6795V21.6927C46.9534 25.3125 44.1198 27.6046 39.5265 27.6046C34.9333 27.6046 32.3428 25.5156 32.1247 22.2756L32.1214 22.2723Z" fill="#915AFB"/>
<path d="M49.2808 8.86816H61.4807V12.0206H53.1349V16.4249H61.0079V19.361H53.1349V23.9816H61.4807V27.134H49.2808V8.86816Z" fill="#915AFB"/>
<path d="M64.231 8.86816H68.0851V23.9816H76.2778V27.134H64.231V8.86816Z" fill="#915AFB"/>
<path d="M78.467 8.86816H86.0604C89.9394 8.86816 92.5299 11.3485 92.5299 15.1087V15.1335C92.5299 18.8937 89.9394 21.374 86.0604 21.374H82.3211V27.134H78.467V8.86816ZM82.3211 11.8935V18.3867H85.1164C87.324 18.3867 88.6259 17.2225 88.6259 15.1467V15.1219C88.6259 13.0461 87.324 11.8935 85.1164 11.8935H82.3211Z" fill="#915AFB"/>
<path d="M94.7708 8.86816H98.6249V27.134H94.7708V8.86816Z" fill="#915AFB"/>
<path d="M101.785 8.86816H113.985V12.0206H105.639V16.4249H113.512V19.361H105.639V23.9816H113.985V27.134H101.785V8.86816Z" fill="#915AFB"/>
<path d="M115.919 18.0069V17.9822C115.919 12.0587 119.212 8.40088 124.558 8.40088C128.922 8.40088 132.19 11.1603 132.546 15.0212V15.1732H128.793V15.084C128.397 13.033 126.752 11.6409 124.556 11.6409C121.66 11.6409 119.86 14.0585 119.86 17.9822V18.0069C119.86 21.9306 121.66 24.3614 124.568 24.3614C126.776 24.3614 128.371 23.0833 128.778 21.133L128.803 21.0323H132.556L132.543 21.171C132.146 24.9939 128.995 27.6014 124.555 27.6014C119.221 27.6014 115.916 23.9304 115.916 18.0069H115.919Z" fill="#915AFB"/>
<path d="M134.8 8.86816H147V12.0206H138.654V16.4249H146.527V19.361H138.654V23.9816H147V27.134H134.8V8.86816Z" fill="#915AFB"/>
</g>
</g>
<defs>
<clipPath id="clip0_461_235">
<rect width="147" height="36" fill="white"/>
</clipPath>
<clipPath id="clip1_461_235">
<rect width="147" height="36" fill="white"/>
</clipPath>
</defs>
</svg>
